<svg xmlns="http://www.w3.org/2000/svg" viewBox="0 0 326.5 183.61"><g id="Layer_2" data-name="Layer 2"><g id="Layer_1-2" data-name="Layer 1"><rect x="2.5" y="38.22" width="35.72" height="35.72" fill="#fff" stroke="#2d3142" stroke-miterlimit="10" stroke-width="5"/><rect x="2.5" y="73.94" width="35.72" height="35.72" fill="#fff" stroke="#2d3142" stroke-miterlimit="10" stroke-width="5"/><rect x="2.5" y="109.67" width="35.72" height="35.72" fill="#fff" stroke="#2d3142" stroke-miterlimit="10" stroke-width="5"/><rect x="2.5" y="3.93" width="35.72" height="35.72" fill="#fff" stroke="#2d3142" stroke-miterlimit="10" stroke-width="5"/><rect x="73.94" y="73.94" width="35.72" height="35.72" fill="#fff" stroke="#2d3142" stroke-miterlimit="10" stroke-width="5"/><rect x="73.94" y="38.22" width="35.72" height="35.72" fill="#fff" stroke="#2d3142" stroke-miterlimit="10" stroke-width="5"/><rect x="73.94" y="2.5" width="35.72" height="35.72" fill="#fff" stroke="#2d3142" stroke-miterlimit="10" stroke-width="5"/><rect x="2.5" y="145.39" width="35.72" height="35.72" fill="#fff" stroke="#2d3142" stroke-miterlimit="10" stroke-width="5"/><rect x="73.94" y="109.67" width="35.72" height="35.72" fill="#fff" stroke="#2d3142" stroke-miterlimit="10" stroke-width="5"/><rect x="38.22" y="73.94" width="35.72" height="35.72" fill="#fff" stroke="#2d3142" stroke-miterlimit="10" stroke-width="5"/><rect x="73.94" y="145.39" width="35.72" height="35.72" fill="#fff" stroke="#2d3142" stroke-miterlimit="10" stroke-width="5"/><rect x="181.11" y="2.5" width="35.72" height="35.72" fill="#dbdbdb" stroke="#2d3142" stroke-miterlimit="10" stroke-width="5"/><rect x="109.67" y="38.22" width="35.72" height="35.72" fill="#dbdbdb" stroke="#2d3142" stroke-miterlimit="10" stroke-width="5"/><rect x="109.67" y="2.5" width="35.72" height="35.72" fill="#dbdbdb" stroke="#2d3142" stroke-miterlimit="10" stroke-width="5"/><rect x="145.39" y="2.5" width="35.72" height="35.72" fill="#dbdbdb" stroke="#2d3142" stroke-miterlimit="10" stroke-width="5"/><rect x="109.67" y="73.94" width="35.72" height="35.72" fill="#dbdbdb" stroke="#2d3142" stroke-miterlimit="10" stroke-width="5"/><rect x="109.67" y="109.67" width="35.72" height="35.72" fill="#dbdbdb" stroke="#2d3142" stroke-miterlimit="10" stroke-width="5"/><rect x="181.11" y="145.39" width="35.72" height="35.72" fill="#dbdbdb" stroke="#2d3142" stroke-miterlimit="10" stroke-width="5"/><rect x="145.39" y="145.39" width="35.72" height="35.72" fill="#dbdbdb" stroke="#2d3142" stroke-miterlimit="10" stroke-width="5"/><rect x="109.67" y="145.39" width="35.72" height="35.72" fill="#dbdbdb" stroke="#2d3142" stroke-miterlimit="10" stroke-width="5"/><rect x="288.28" y="2.5" width="35.72" height="35.72" fill="#fff" stroke="#2d3142" stroke-miterlimit="10" stroke-width="5"/><rect x="216.83" y="145.39" width="35.72" height="35.72" fill="#fff" stroke="#2d3142" stroke-miterlimit="10" stroke-width="5"/><rect x="252.56" y="145.39" width="35.72" height="35.72" fill="#fff" stroke="#2d3142" stroke-miterlimit="10" stroke-width="5"/><rect x="288.28" y="145.39" width="35.72" height="35.72" fill="#fff" stroke="#2d3142" stroke-miterlimit="10" stroke-width="5"/><rect x="288.28" y="109.67" width="35.72" height="35.72" fill="#fff" stroke="#2d3142" stroke-miterlimit="10" stroke-width="5"/><rect x="288.28" y="73.94" width="35.72" height="35.72" fill="#fff" stroke="#2d3142" stroke-miterlimit="10" stroke-width="5"/><rect x="252.56" y="73.94" width="35.72" height="35.72" fill="#fff" stroke="#2d3142" stroke-miterlimit="10" stroke-width="5"/><rect x="216.83" y="73.94" width="35.72" height="35.72" fill="#fff" stroke="#2d3142" stroke-miterlimit="10" stroke-width="5"/><rect x="216.83" y="38.22" width="35.72" height="35.72" fill="#fff" stroke="#2d3142" stroke-miterlimit="10" stroke-width="5"/><rect x="216.83" y="2.5" width="35.72" height="35.72" fill="#fff" stroke="#2d3142" stroke-miterlimit="10" stroke-width="5"/><rect x="252.56" y="2.5" width="35.72" height="35.72" fill="#fff" stroke="#2d3142" stroke-miterlimit="10" stroke-width="5"/></g></g></svg>